<mxfile host="app.diagrams.net" modified="2023-11-23T09:28:30.989Z" agent="Mozilla/5.0 (Windows NT 10.0; Win64; x64) AppleWebKit/537.36 (KHTML, like Gecko) Chrome/119.0.0.0 Safari/537.36" etag="j4U7IkjnQ--73K0qV64O" version="22.1.3" type="device">
  <diagram id="R2lEEEUBdFMjLlhIrx00" name="Page-1">
    <mxGraphModel dx="989" dy="517" grid="1" gridSize="10" guides="1" tooltips="1" connect="1" arrows="1" fold="1" page="1" pageScale="1" pageWidth="850" pageHeight="1100" math="0" shadow="0" extFonts="Permanent Marker^https://fonts.googleapis.com/css?family=Permanent+Marker">
      <root>
        <mxCell id="0" />
        <mxCell id="1" parent="0" />
        <mxCell id="lg-PG5dQ58UiSV9zJgzE-31" value="" style="rounded=1;whiteSpace=wrap;html=1;fillColor=none;arcSize=4;dashed=1;dashPattern=1 4;glass=0;shadow=0;" vertex="1" parent="1">
          <mxGeometry x="25" y="80" width="800" height="400" as="geometry" />
        </mxCell>
        <mxCell id="lg-PG5dQ58UiSV9zJgzE-29" value="" style="rounded=1;whiteSpace=wrap;html=1;fillColor=none;arcSize=4;dashed=1;dashPattern=1 4;glass=0;shadow=0;" vertex="1" parent="1">
          <mxGeometry x="45" y="130" width="410" height="330" as="geometry" />
        </mxCell>
        <mxCell id="lg-PG5dQ58UiSV9zJgzE-1" value="&lt;b&gt;ChatAPI&lt;/b&gt;&lt;br&gt;project" style="rounded=1;whiteSpace=wrap;html=1;arcSize=17;" vertex="1" parent="1">
          <mxGeometry x="145" y="230" width="120" height="60" as="geometry" />
        </mxCell>
        <mxCell id="lg-PG5dQ58UiSV9zJgzE-5" value="" style="curved=1;endArrow=classic;html=1;rounded=0;" edge="1" parent="1" target="lg-PG5dQ58UiSV9zJgzE-6">
          <mxGeometry width="50" height="50" relative="1" as="geometry">
            <mxPoint x="175" y="290" as="sourcePoint" />
            <mxPoint x="115" y="450" as="targetPoint" />
            <Array as="points">
              <mxPoint x="175" y="330" />
              <mxPoint x="115" y="350" />
            </Array>
          </mxGeometry>
        </mxCell>
        <mxCell id="lg-PG5dQ58UiSV9zJgzE-6" value="Windows" style="rounded=1;whiteSpace=wrap;html=1;" vertex="1" parent="1">
          <mxGeometry x="55" y="390" width="120" height="60" as="geometry" />
        </mxCell>
        <mxCell id="lg-PG5dQ58UiSV9zJgzE-7" value="Android&lt;br&gt;" style="rounded=1;whiteSpace=wrap;html=1;" vertex="1" parent="1">
          <mxGeometry x="145" y="500" width="120" height="60" as="geometry" />
        </mxCell>
        <mxCell id="lg-PG5dQ58UiSV9zJgzE-8" value="Linux" style="rounded=1;whiteSpace=wrap;html=1;" vertex="1" parent="1">
          <mxGeometry x="235" y="390" width="120" height="60" as="geometry" />
        </mxCell>
        <mxCell id="lg-PG5dQ58UiSV9zJgzE-10" value="" style="curved=1;endArrow=classic;html=1;rounded=0;entryX=0.5;entryY=0;entryDx=0;entryDy=0;" edge="1" parent="1" target="lg-PG5dQ58UiSV9zJgzE-8">
          <mxGeometry width="50" height="50" relative="1" as="geometry">
            <mxPoint x="235" y="290" as="sourcePoint" />
            <mxPoint x="235" y="360.71067811865476" as="targetPoint" />
            <Array as="points">
              <mxPoint x="235" y="330" />
              <mxPoint x="295" y="350" />
            </Array>
          </mxGeometry>
        </mxCell>
        <mxCell id="lg-PG5dQ58UiSV9zJgzE-12" value="" style="curved=1;endArrow=classic;html=1;rounded=0;dashed=1;dashPattern=8 8;" edge="1" parent="1" source="lg-PG5dQ58UiSV9zJgzE-1" target="lg-PG5dQ58UiSV9zJgzE-7">
          <mxGeometry width="50" height="50" relative="1" as="geometry">
            <mxPoint x="205" y="340" as="sourcePoint" />
            <mxPoint x="205" y="360.71067811865476" as="targetPoint" />
          </mxGeometry>
        </mxCell>
        <mxCell id="lg-PG5dQ58UiSV9zJgzE-13" value="Win/Linux&lt;br&gt;&lt;b&gt;Console Chat&lt;/b&gt;&lt;br&gt;project" style="rounded=1;whiteSpace=wrap;html=1;" vertex="1" parent="1">
          <mxGeometry x="325" y="140" width="120" height="60" as="geometry" />
        </mxCell>
        <mxCell id="lg-PG5dQ58UiSV9zJgzE-14" value="" style="curved=1;endArrow=classic;html=1;rounded=0;entryX=0;entryY=0.5;entryDx=0;entryDy=0;" edge="1" parent="1" source="lg-PG5dQ58UiSV9zJgzE-1" target="lg-PG5dQ58UiSV9zJgzE-13">
          <mxGeometry width="50" height="50" relative="1" as="geometry">
            <mxPoint x="185" y="310" as="sourcePoint" />
            <mxPoint x="255.71067811865476" y="260" as="targetPoint" />
            <Array as="points">
              <mxPoint x="295" y="260" />
              <mxPoint x="295" y="170" />
            </Array>
          </mxGeometry>
        </mxCell>
        <mxCell id="lg-PG5dQ58UiSV9zJgzE-20" value="&lt;b&gt;Chat GUI&lt;/b&gt;&lt;br&gt;Qt project" style="rounded=1;whiteSpace=wrap;html=1;arcSize=17;" vertex="1" parent="1">
          <mxGeometry x="585" y="230" width="120" height="60" as="geometry" />
        </mxCell>
        <mxCell id="lg-PG5dQ58UiSV9zJgzE-21" value="" style="curved=1;endArrow=classic;html=1;rounded=0;entryX=0.5;entryY=0;entryDx=0;entryDy=0;" edge="1" parent="1" target="lg-PG5dQ58UiSV9zJgzE-22">
          <mxGeometry width="50" height="50" relative="1" as="geometry">
            <mxPoint x="615" y="290" as="sourcePoint" />
            <mxPoint x="555" y="450" as="targetPoint" />
            <Array as="points">
              <mxPoint x="615" y="330" />
              <mxPoint x="555" y="350" />
            </Array>
          </mxGeometry>
        </mxCell>
        <mxCell id="lg-PG5dQ58UiSV9zJgzE-22" value="Windows" style="rounded=1;whiteSpace=wrap;html=1;" vertex="1" parent="1">
          <mxGeometry x="495" y="390" width="120" height="60" as="geometry" />
        </mxCell>
        <mxCell id="lg-PG5dQ58UiSV9zJgzE-23" value="Android&lt;br&gt;" style="rounded=1;whiteSpace=wrap;html=1;" vertex="1" parent="1">
          <mxGeometry x="585" y="500" width="120" height="60" as="geometry" />
        </mxCell>
        <mxCell id="lg-PG5dQ58UiSV9zJgzE-24" value="Linux" style="rounded=1;whiteSpace=wrap;html=1;" vertex="1" parent="1">
          <mxGeometry x="675" y="390" width="120" height="60" as="geometry" />
        </mxCell>
        <mxCell id="lg-PG5dQ58UiSV9zJgzE-25" value="" style="curved=1;endArrow=classic;html=1;rounded=0;entryX=0.5;entryY=0;entryDx=0;entryDy=0;" edge="1" parent="1" target="lg-PG5dQ58UiSV9zJgzE-24">
          <mxGeometry width="50" height="50" relative="1" as="geometry">
            <mxPoint x="675" y="290" as="sourcePoint" />
            <mxPoint x="675" y="360.71067811865476" as="targetPoint" />
            <Array as="points">
              <mxPoint x="675" y="330" />
              <mxPoint x="735" y="350" />
            </Array>
          </mxGeometry>
        </mxCell>
        <mxCell id="lg-PG5dQ58UiSV9zJgzE-26" value="" style="curved=1;endArrow=classic;html=1;rounded=0;dashed=1;dashPattern=8 8;entryX=0.5;entryY=0;entryDx=0;entryDy=0;" edge="1" parent="1" source="lg-PG5dQ58UiSV9zJgzE-20" target="lg-PG5dQ58UiSV9zJgzE-23">
          <mxGeometry width="50" height="50" relative="1" as="geometry">
            <mxPoint x="645" y="340" as="sourcePoint" />
            <mxPoint x="645" y="450" as="targetPoint" />
          </mxGeometry>
        </mxCell>
        <mxCell id="lg-PG5dQ58UiSV9zJgzE-27" value="" style="curved=1;endArrow=classic;html=1;rounded=0;entryX=0;entryY=0.5;entryDx=0;entryDy=0;" edge="1" parent="1" source="lg-PG5dQ58UiSV9zJgzE-1" target="lg-PG5dQ58UiSV9zJgzE-20">
          <mxGeometry width="50" height="50" relative="1" as="geometry">
            <mxPoint x="185" y="310" as="sourcePoint" />
            <mxPoint x="255.71067811865476" y="260" as="targetPoint" />
          </mxGeometry>
        </mxCell>
        <mxCell id="lg-PG5dQ58UiSV9zJgzE-32" value="ver 0.5" style="text;html=1;strokeColor=none;fillColor=none;align=center;verticalAlign=middle;whiteSpace=wrap;rounded=0;" vertex="1" parent="1">
          <mxGeometry x="45" y="130" width="60" height="30" as="geometry" />
        </mxCell>
        <mxCell id="lg-PG5dQ58UiSV9zJgzE-33" value="ver 1.0" style="text;html=1;strokeColor=none;fillColor=none;align=center;verticalAlign=middle;whiteSpace=wrap;rounded=0;" vertex="1" parent="1">
          <mxGeometry x="25" y="80" width="60" height="30" as="geometry" />
        </mxCell>
        <mxCell id="lg-PG5dQ58UiSV9zJgzE-34" value="" style="rounded=1;whiteSpace=wrap;html=1;fillColor=none;arcSize=4;dashed=1;dashPattern=1 4;glass=0;shadow=0;" vertex="1" parent="1">
          <mxGeometry x="10" y="40" width="830" height="540" as="geometry" />
        </mxCell>
        <mxCell id="lg-PG5dQ58UiSV9zJgzE-35" value="ver 1.0+" style="text;html=1;strokeColor=none;fillColor=none;align=center;verticalAlign=middle;whiteSpace=wrap;rounded=0;" vertex="1" parent="1">
          <mxGeometry x="10" y="40" width="60" height="30" as="geometry" />
        </mxCell>
      </root>
    </mxGraphModel>
  </diagram>
</mxfile>
